<svg width="282" height="36" viewBox="0 0 282 36" fill="none" xmlns="http://www.w3.org/2000/svg">
<path fill-rule="evenodd" clip-rule="evenodd" d="M1.3281 11.1117C0.00754594 14.4008 -0.337973 18.0199 0.33529 21.5117C1.00847 25.0033 2.67021 28.2106 5.11022 30.7279C7.55024 33.2452 10.6591 34.9596 14.0435 35.6541C17.4281 36.3487 20.9361 35.9921 24.1243 34.6298C27.3123 33.2675 30.0372 30.9603 31.9543 28.0003C32.0054 27.9213 32.0559 27.842 32.1058 27.7623C32.141 27.7061 32.1759 27.6495 32.2106 27.5928V36H33.5526C37.0034 36 40.3767 34.9443 43.2458 32.9663C46.1151 30.9887 48.3513 28.1773 49.6718 24.8882C50.9925 21.5992 51.338 17.9801 50.6647 14.4883C49.9915 10.9967 48.3299 7.7894 45.8898 5.2721C43.4497 2.75471 40.3409 1.04042 36.9565 0.34591C33.5719 -0.348679 30.0639 0.00778561 26.8757 1.37017C23.6877 2.73257 20.9628 5.03969 19.0457 7.99974C18.9585 8.13446 18.8731 8.27034 18.7894 8.40717V1.07325e-05H17.4474C13.9966 1.07325e-05 10.6233 1.05571 7.75414 3.03359C4.88496 5.01138 2.64867 7.82261 1.3281 11.1117ZM16.1053 18V2.83229C13.6591 3.06266 11.2996 3.9201 9.24541 5.33606C6.8176 7.00962 4.92543 9.38841 3.80802 12.1714C2.69061 14.9545 2.39825 18.0168 2.96789 20.9714C3.53754 23.9259 4.94362 26.6397 7.00822 28.7698C9.0729 30.8998 11.7035 32.3504 14.5673 32.9381C17.431 33.5258 20.3994 33.2241 23.097 32.0714C25.6863 30.9649 27.9145 29.1219 29.5238 26.7609C28.3041 27.3582 26.9399 27.6924 25.5 27.6924C20.3115 27.6924 16.1053 23.3528 16.1053 18ZM34.8947 33.1677V18C34.8947 12.6471 30.6885 8.30769 25.5 8.30769C24.0601 8.30769 22.6959 8.64185 21.4762 9.23917C23.0855 6.87804 25.3137 5.03504 27.903 3.92863C30.6006 2.77583 33.569 2.47422 36.4327 3.0619C39.2965 3.64958 41.9271 5.1002 43.9918 7.23019C46.0564 9.36027 47.4625 12.0741 48.032 15.0286C48.6017 17.9832 48.3094 21.0455 47.192 23.8285C46.0747 26.6116 44.1824 28.9904 41.7546 30.6639C39.7004 32.0799 37.3409 32.9373 34.8947 33.1677ZM25.3657 24.9218C21.7662 24.8489 18.8615 21.852 18.7908 18.1385H21.3296C23.3324 18.6094 24.909 20.2359 25.3657 22.3021V24.9218ZM25.6341 24.9218C29.2337 24.8489 32.1385 21.852 32.2092 18.1385H29.6704C27.6674 18.6094 26.0907 20.2361 25.6341 22.3026V24.9218ZM32.2092 17.8615C32.1385 14.148 29.2337 11.1511 25.6341 11.0783V13.6974C26.0907 15.7638 27.6672 17.3904 29.67 17.8615H32.2092ZM25.3657 11.0783C21.7663 11.1511 18.8615 14.148 18.7908 17.8615H21.33C23.3326 17.3904 24.9092 15.764 25.3657 13.6979V11.0783Z" fill="#8046FD"/>
<path d="M78.098 15.5469H74.9872C74.9304 15.1444 74.8144 14.7869 74.6392 14.4744C74.464 14.1572 74.2391 13.8873 73.9645 13.6648C73.6899 13.4422 73.3726 13.2718 73.0128 13.1534C72.6577 13.035 72.2718 12.9759 71.8551 12.9759C71.1023 12.9759 70.4465 13.1629 69.8878 13.5369C69.3291 13.9062 68.8958 14.446 68.5881 15.1562C68.2803 15.8617 68.1264 16.7187 68.1264 17.7273C68.1264 18.7642 68.2803 19.6354 68.5881 20.3409C68.9006 21.0464 69.3362 21.5791 69.8949 21.9389C70.4536 22.2988 71.0999 22.4787 71.8338 22.4787C72.2457 22.4787 72.6269 22.4242 72.9773 22.3153C73.3324 22.2064 73.6473 22.0478 73.9219 21.8395C74.1965 21.6264 74.4238 21.3684 74.6037 21.0653C74.7884 20.7623 74.9162 20.4167 74.9872 20.0284L78.098 20.0426C78.0175 20.7102 77.8163 21.3542 77.4943 21.9744C77.1771 22.59 76.7486 23.1416 76.2088 23.6293C75.6738 24.1122 75.0346 24.4957 74.2912 24.7798C73.5526 25.0592 72.7169 25.1989 71.7841 25.1989C70.4867 25.1989 69.3267 24.9053 68.304 24.3182C67.286 23.7311 66.4811 22.8812 65.8892 21.7685C65.3021 20.6558 65.0085 19.3087 65.0085 17.7273C65.0085 16.1411 65.3068 14.7917 65.9034 13.679C66.5 12.5663 67.3097 11.7187 68.3324 11.1364C69.3551 10.5492 70.5057 10.2557 71.7841 10.2557C72.6269 10.2557 73.4081 10.3741 74.1278 10.6108C74.8523 10.8475 75.4938 11.1932 76.0526 11.6477C76.6113 12.0975 77.0658 12.6491 77.4162 13.3026C77.7713 13.956 77.9986 14.7041 78.098 15.5469ZM79.451 10.4545H82.8956L86.2124 16.7188H86.3544L89.6712 10.4545H93.1158L87.8104 19.858V25H84.7564V19.858L79.451 10.4545ZM94.7955 25V10.4545H100.619C101.689 10.4545 102.582 10.6132 103.297 10.9304C104.012 11.2476 104.549 11.688 104.909 12.2514C105.269 12.8101 105.449 13.4541 105.449 14.1832C105.449 14.7514 105.335 15.2509 105.108 15.6818C104.881 16.108 104.568 16.4583 104.17 16.733C103.777 17.0028 103.328 17.1946 102.821 17.3082V17.4503C103.375 17.474 103.893 17.6302 104.376 17.919C104.864 18.2079 105.259 18.6127 105.562 19.1335C105.866 19.6496 106.017 20.2652 106.017 20.9801C106.017 21.7519 105.825 22.4408 105.442 23.0469C105.063 23.6482 104.502 24.1241 103.759 24.4744C103.015 24.8248 102.099 25 101.01 25H94.7955ZM97.8707 22.4858H100.378C101.235 22.4858 101.86 22.3224 102.253 21.9957C102.646 21.6643 102.842 21.224 102.842 20.6747C102.842 20.2723 102.745 19.9171 102.551 19.6094C102.357 19.3016 102.08 19.0601 101.72 18.8849C101.365 18.7098 100.941 18.6222 100.449 18.6222H97.8707V22.4858ZM97.8707 16.5412H100.151C100.572 16.5412 100.946 16.4678 101.273 16.321C101.604 16.1695 101.865 15.9564 102.054 15.6818C102.248 15.4072 102.345 15.0781 102.345 14.6946C102.345 14.169 102.158 13.7453 101.784 13.4233C101.415 13.1013 100.889 12.9403 100.207 12.9403H97.8707V16.5412ZM108.018 25V10.4545H117.819V12.9901H111.093V16.456H117.315V18.9915H111.093V22.4645H117.848V25H108.018ZM120.264 25V10.4545H126.003C127.101 10.4545 128.039 10.651 128.815 11.044C129.597 11.4323 130.191 11.9839 130.598 12.6989C131.01 13.4091 131.216 14.2448 131.216 15.206C131.216 16.1719 131.008 17.0028 130.591 17.6989C130.174 18.3902 129.571 18.9205 128.78 19.2898C127.994 19.6591 127.042 19.8438 125.925 19.8438H122.082V17.3722H125.428C126.015 17.3722 126.502 17.2917 126.891 17.1307C127.279 16.9697 127.568 16.7282 127.757 16.4062C127.951 16.0843 128.048 15.6842 128.048 15.206C128.048 14.723 127.951 14.3158 127.757 13.9844C127.568 13.6529 127.277 13.402 126.884 13.2315C126.495 13.0563 126.005 12.9688 125.413 12.9688H123.339V25H120.264ZM128.119 18.3807L131.734 25H128.339L124.803 18.3807H128.119ZM141.28 14.6378C141.223 14.0649 140.979 13.6198 140.548 13.3026C140.117 12.9853 139.533 12.8267 138.794 12.8267C138.292 12.8267 137.868 12.8977 137.523 13.0398C137.177 13.1771 136.912 13.3688 136.727 13.6151C136.547 13.8613 136.457 14.1406 136.457 14.4531C136.448 14.7135 136.502 14.9408 136.621 15.1349C136.744 15.3291 136.912 15.4972 137.125 15.6392C137.338 15.7765 137.584 15.8973 137.864 16.0014C138.143 16.1009 138.441 16.1861 138.759 16.2571L140.065 16.5696C140.7 16.7116 141.282 16.901 141.812 17.1378C142.343 17.3745 142.802 17.6657 143.19 18.0114C143.579 18.357 143.879 18.7642 144.092 19.233C144.31 19.7017 144.421 20.2391 144.426 20.8452C144.421 21.7353 144.194 22.5071 143.744 23.1605C143.299 23.8092 142.655 24.3134 141.812 24.6733C140.974 25.0284 139.964 25.206 138.78 25.206C137.606 25.206 136.583 25.026 135.712 24.6662C134.845 24.3063 134.168 23.7737 133.68 23.0682C133.197 22.358 132.944 21.4796 132.92 20.4332H135.896C135.929 20.9209 136.069 21.3281 136.315 21.6548C136.566 21.9768 136.9 22.2206 137.317 22.3864C137.738 22.5473 138.214 22.6278 138.744 22.6278C139.265 22.6278 139.717 22.5521 140.101 22.4006C140.489 22.2491 140.79 22.0384 141.003 21.7685C141.216 21.4986 141.322 21.1884 141.322 20.8381C141.322 20.5114 141.225 20.2367 141.031 20.0142C140.842 19.7917 140.563 19.6023 140.193 19.446C139.829 19.2898 139.381 19.1477 138.851 19.0199L137.267 18.6222C136.041 18.3239 135.072 17.8575 134.362 17.223C133.652 16.5885 133.299 15.7339 133.304 14.6591C133.299 13.7784 133.534 13.009 134.007 12.3509C134.485 11.6927 135.141 11.179 135.974 10.8097C136.808 10.4403 137.755 10.2557 138.815 10.2557C139.895 10.2557 140.837 10.4403 141.642 10.8097C142.452 11.179 143.081 11.6927 143.531 12.3509C143.981 13.009 144.213 13.7713 144.227 14.6378H141.28ZM146.495 25V10.4545H156.296V12.9901H149.57V16.456H155.792V18.9915H149.57V22.4645H156.324V25H146.495ZM171.575 15.5469H168.464C168.407 15.1444 168.291 14.7869 168.116 14.4744C167.941 14.1572 167.716 13.8873 167.441 13.6648C167.166 13.4422 166.849 13.2718 166.489 13.1534C166.134 13.035 165.748 12.9759 165.332 12.9759C164.579 12.9759 163.923 13.1629 163.364 13.5369C162.806 13.9062 162.372 14.446 162.065 15.1562C161.757 15.8617 161.603 16.7187 161.603 17.7273C161.603 18.7642 161.757 19.6354 162.065 20.3409C162.377 21.0464 162.813 21.5791 163.371 21.9389C163.93 22.2988 164.576 22.4787 165.31 22.4787C165.722 22.4787 166.103 22.4242 166.454 22.3153C166.809 22.2064 167.124 22.0478 167.398 21.8395C167.673 21.6264 167.9 21.3684 168.08 21.0653C168.265 20.7623 168.393 20.4167 168.464 20.0284L171.575 20.0426C171.494 20.7102 171.293 21.3542 170.971 21.9744C170.654 22.59 170.225 23.1416 169.685 23.6293C169.15 24.1122 168.511 24.4957 167.768 24.7798C167.029 25.0592 166.193 25.1989 165.261 25.1989C163.963 25.1989 162.803 24.9053 161.781 24.3182C160.763 23.7311 159.958 22.8812 159.366 21.7685C158.779 20.6558 158.485 19.3087 158.485 17.7273C158.485 16.1411 158.783 14.7917 159.38 13.679C159.977 12.5663 160.786 11.7187 161.809 11.1364C162.832 10.5492 163.982 10.2557 165.261 10.2557C166.103 10.2557 166.885 10.3741 167.604 10.6108C168.329 10.8475 168.97 11.1932 169.529 11.6477C170.088 12.0975 170.542 12.6491 170.893 13.3026C171.248 13.956 171.475 14.7041 171.575 15.5469ZM173.78 25V10.4545H179.518C180.617 10.4545 181.554 10.651 182.331 11.044C183.112 11.4323 183.706 11.9839 184.114 12.6989C184.526 13.4091 184.732 14.2448 184.732 15.206C184.732 16.1719 184.523 17.0028 184.107 17.6989C183.69 18.3902 183.086 18.9205 182.295 19.2898C181.509 19.6591 180.558 19.8438 179.44 19.8438H175.598V17.3722H178.943C179.53 17.3722 180.018 17.2917 180.406 17.1307C180.795 16.9697 181.083 16.7282 181.273 16.4062C181.467 16.0843 181.564 15.6842 181.564 15.206C181.564 14.723 181.467 14.3158 181.273 13.9844C181.083 13.6529 180.792 13.402 180.399 13.2315C180.011 13.0563 179.521 12.9688 178.929 12.9688H176.855V25H173.78ZM181.635 18.3807L185.25 25H181.855L178.318 18.3807H181.635ZM186.905 25V10.4545H196.706V12.9901H189.98V16.456H196.202V18.9915H189.98V22.4645H196.734V25H186.905ZM211.985 15.5469H208.874C208.817 15.1444 208.701 14.7869 208.526 14.4744C208.351 14.1572 208.126 13.8873 207.851 13.6648C207.577 13.4422 207.259 13.2718 206.9 13.1534C206.544 13.035 206.158 12.9759 205.742 12.9759C204.989 12.9759 204.333 13.1629 203.775 13.5369C203.216 13.9062 202.783 14.446 202.475 15.1562C202.167 15.8617 202.013 16.7187 202.013 17.7273C202.013 18.7642 202.167 19.6354 202.475 20.3409C202.787 21.0464 203.223 21.5791 203.782 21.9389C204.34 22.2988 204.987 22.4787 205.721 22.4787C206.132 22.4787 206.514 22.4242 206.864 22.3153C207.219 22.2064 207.534 22.0478 207.809 21.8395C208.083 21.6264 208.31 21.3684 208.49 21.0653C208.675 20.7623 208.803 20.4167 208.874 20.0284L211.985 20.0426C211.904 20.7102 211.703 21.3542 211.381 21.9744C211.064 22.59 210.635 23.1416 210.096 23.6293C209.56 24.1122 208.921 24.4957 208.178 24.7798C207.439 25.0592 206.604 25.1989 205.671 25.1989C204.373 25.1989 203.213 24.9053 202.191 24.3182C201.173 23.7311 200.368 22.8812 199.776 21.7685C199.189 20.6558 198.895 19.3087 198.895 17.7273C198.895 16.1411 199.194 14.7917 199.79 13.679C200.387 12.5663 201.196 11.7187 202.219 11.1364C203.242 10.5492 204.392 10.2557 205.671 10.2557C206.514 10.2557 207.295 10.3741 208.015 10.6108C208.739 10.8475 209.381 11.1932 209.939 11.6477C210.498 12.0975 210.953 12.6491 211.303 13.3026C211.658 13.956 211.885 14.7041 211.985 15.5469ZM227.556 17.7273C227.556 19.3134 227.256 20.6629 226.654 21.7756C226.058 22.8883 225.243 23.7382 224.211 24.3253C223.184 24.9077 222.029 25.1989 220.745 25.1989C219.453 25.1989 218.293 24.9053 217.265 24.3182C216.238 23.7311 215.426 22.8812 214.829 21.7685C214.233 20.6558 213.934 19.3087 213.934 17.7273C213.934 16.1411 214.233 14.7917 214.829 13.679C215.426 12.5663 216.238 11.7187 217.265 11.1364C218.293 10.5492 219.453 10.2557 220.745 10.2557C222.029 10.2557 223.184 10.5492 224.211 11.1364C225.243 11.7187 226.058 12.5663 226.654 13.679C227.256 14.7917 227.556 16.1411 227.556 17.7273ZM224.439 17.7273C224.439 16.6998 224.285 15.8333 223.977 15.1278C223.674 14.4223 223.245 13.8873 222.691 13.5227C222.137 13.1581 221.489 12.9759 220.745 12.9759C220.002 12.9759 219.353 13.1581 218.799 13.5227C218.245 13.8873 217.815 14.4223 217.507 15.1278C217.204 15.8333 217.052 16.6998 217.052 17.7273C217.052 18.7547 217.204 19.6212 217.507 20.3267C217.815 21.0322 218.245 21.5672 218.799 21.9318C219.353 22.2964 220.002 22.4787 220.745 22.4787C221.489 22.4787 222.137 22.2964 222.691 21.9318C223.245 21.5672 223.674 21.0322 223.977 20.3267C224.285 19.6212 224.439 18.7547 224.439 17.7273ZM231.642 10.4545L235.158 21.5057H235.293L238.815 10.4545H242.224L237.21 25H233.247L228.226 10.4545H231.642ZM243.975 25V10.4545H253.776V12.9901H247.05V16.456H253.272V18.9915H247.05V22.4645H253.805V25H243.975ZM256.221 25V10.4545H261.96C263.058 10.4545 263.996 10.651 264.772 11.044C265.554 11.4323 266.148 11.9839 266.555 12.6989C266.967 13.4091 267.173 14.2448 267.173 15.206C267.173 16.1719 266.965 17.0028 266.548 17.6989C266.131 18.3902 265.528 18.9205 264.737 19.2898C263.951 19.6591 262.999 19.8438 261.882 19.8438H258.039V17.3722H261.385C261.972 17.3722 262.459 17.2917 262.848 17.1307C263.236 16.9697 263.525 16.7282 263.714 16.4062C263.908 16.0843 264.005 15.6842 264.005 15.206C264.005 14.723 263.908 14.3158 263.714 13.9844C263.525 13.6529 263.234 13.402 262.841 13.2315C262.452 13.0563 261.962 12.9688 261.37 12.9688H259.297V25H256.221ZM264.076 18.3807L267.691 25H264.297L260.76 18.3807H264.076ZM267.888 10.4545H271.333L274.65 16.7188H274.792L278.109 10.4545H281.553L276.248 19.858V25H273.194V19.858L267.888 10.4545Z" fill="white"/>
</svg>
